<svg
    xmlns="http://www.w3.org/2000/svg"
    xmlns:svg="http://www.w3.org/2000/svg"
    version="1.1"
    height="512px"
    width="512px"
    viewBox="0 0 512 512">
    <linearGradient
        id="lineargradient1"
        x1="-1043.7095"
        x2="-980.93713"
        y1="79.841248"
        y2="136.36168"
        gradientTransform="matrix(1,0,0,-1,1075,158)"
        gradientUnits="userSpaceOnUse">
        <stop
            offset="6.6e-07"
            stop-color="#2892df"
            id="stop1"/>
        <stop
            offset="1"
            stop-color="#3ccbf4"
            id="stop2"/>
    </linearGradient>
    <path
        d="M234.849,419v6.623c-79.268-9.958-139.334-53.393-139.334-105.757 c0-39.313,33.873-73.595,84.485-92.511L178.023,180C88.892,202.497,26.001,256.607,26.001,319.866 c0,76.288,90.871,139.128,208.95,149.705l0.018-0.009V419H234.849z"
        style="fill:#0078d4;"
        id="path1"/>
    <polygon
        points="304.772,436.713 304.67,436.713 304.67,221.667 304.67,213.667 304.67,42.429 234.849,78.25 234.849,221.667 234.969,221.667 234.969,469.563"
        style="fill:url(#lineargradient1);"
        id="polygon1"
    />
    <path
        d="M485.999,291.938l-9.446-100.114l-35.938,20.331C415.087,196.649,382.5,177.5,340,177.261 l0.002,36.406v7.498c3.502,0.968,6.923,2.024,10.301,3.125c14.145,4.611,27.176,10.352,38.666,17.128l-37.786,21.254 L485.999,291.938z"
        style="fill:#0078d4;"
        id="path2"/>
</svg>
